<?xml version="1.0" standalone="no"?>
<!DOCTYPE svg PUBLIC "-//W3C//DTD SVG 20010904//EN"
 "http://www.w3.org/TR/2001/REC-SVG-20010904/DTD/svg10.dtd">
<svg version="1.0" xmlns="http://www.w3.org/2000/svg"
 width="416.000000pt" height="416.000000pt" viewBox="0 0 416.000000 416.000000"
 preserveAspectRatio="xMidYMid meet">

<g transform="translate(0.000000,416.000000) scale(0.100000,-0.100000)"
fill="#000000" stroke="none">
<path d="M2163 3623 c-37 -14 12 -126 119 -267 l60 -80 -22 -16 c-17 -13 -32
-15 -64 -9 -88 17 -257 10 -382 -16 -28 -6 -32 -4 -38 22 -7 27 -81 133 -93
133 -3 0 1 -8 9 -17 26 -29 78 -143 78 -170 0 -140 -126 -252 -348 -309 -133
-35 -359 -44 -520 -20 -273 40 -497 144 -578 266 -26 39 -27 68 -1 40 10 -10
9 -11 -2 -5 -28 16 28 -52 66 -81 21 -15 32 -20 24 -11 -20 25 -11 22 65 -23
38 -22 73 -40 79 -40 5 0 -19 16 -55 36 -87 48 -147 98 -180 151 -54 85 -48
157 21 239 l41 49 -46 -48 c-50 -54 -65 -90 -73 -188 -9 -109 35 -184 155
-262 112 -73 255 -124 425 -152 21 -3 37 -12 37 -19 0 -39 86 -181 153 -253
72 -77 73 -79 66 -118 -12 -60 -10 -253 2 -321 33 -189 128 -373 264 -510 117
-118 276 -211 440 -256 115 -31 374 -32 488 0 339 94 597 353 688 692 19 71
23 110 23 240 1 187 -18 271 -94 424 l-48 99 24 37 c36 55 49 132 35 203 -32
149 -151 310 -274 368 -70 33 -102 38 -93 13 3 -9 6 -20 6 -25 0 -6 4 -8 9 -5
5 4 8 -2 6 -11 -1 -10 0 -22 3 -28 3 -5 7 -17 7 -27 3 -30 -12 -10 -25 36 -6
24 -25 57 -40 74 -89 98 -339 197 -417 165z m237 -69 c0 -2 -9 0 -20 6 -11 6
-20 13 -20 16 0 2 9 0 20 -6 11 -6 20 -13 20 -16z m90 -50 c0 -2 -9 0 -20 6
-11 6 -20 13 -20 16 0 2 9 0 20 -6 11 -6 20 -13 20 -16z m176 -119 c1 -9 -4
-11 -14 -7 -10 4 -12 7 -4 10 7 2 9 9 5 15 -3 7 -2 8 2 4 5 -4 10 -14 11 -22z
m-54 -33 c-7 -2 -10 -8 -7 -13 4 -5 -2 -6 -11 -2 -11 4 -13 8 -6 11 7 2 10 8
7 13 -4 5 2 6 11 2 11 -4 13 -8 6 -11z m164 -7 c1 -9 -4 -11 -14 -8 -11 5 -13
3 -7 -8 5 -8 4 -11 0 -6 -16 14 -14 36 3 30 11 -5 13 -3 7 8 -5 8 -4 11 0 6 5
-4 10 -14 11 -22z m-56 -50 c0 -2 -7 -1 -17 2 -11 5 -14 3 -8 -6 6 -10 3 -11
-14 -2 -25 14 -28 23 -4 14 11 -5 14 -3 8 6 -6 10 -3 11 14 2 11 -7 21 -14 21
-16z m-44 -41 c1 -9 0 -13 -4 -10 -3 4 -7 14 -8 22 -1 9 0 13 4 10 3 -4 7 -14
8 -22z m164 -2 c3 -2 -6 -1 -19 3 -18 6 -22 4 -16 -6 5 -8 4 -10 0 -6 -5 4
-10 14 -11 22 -2 12 2 13 19 4 12 -7 24 -14 27 -17z m-195 -10 c-3 -3 -11 0
-18 7 -9 10 -8 11 6 5 10 -3 15 -9 12 -12z m-170 -20 c17 -11 69 -56 117 -101
l87 -82 -13 -32 c-7 -18 -17 -41 -21 -52 -7 -18 -12 -45 -17 -97 -1 -10 -6
-18 -11 -18 -4 0 -6 -4 -3 -9 9 -14 -5 -42 -16 -35 -6 4 -7 -2 -3 -17 4 -13 8
-24 9 -25 0 0 20 -6 43 -13 109 -31 89 -166 -32 -222 -45 -21 -135 -25 -168
-7 -19 9 -20 9 -10 -3 9 -11 6 -22 -12 -53 -20 -33 -21 -41 -10 -53 11 -10 12
-20 5 -39 -12 -31 -12 -37 -1 -30 26 16 171 -126 213 -208 59 -115 59 -192 1
-326 -26 -59 -38 -100 -33 -109 5 -9 0 -22 -12 -35 -12 -13 -22 -17 -25 -10
-2 6 -10 20 -18 30 -13 17 -14 17 -15 2 0 -21 -67 -76 -140 -116 -63 -34 -159
-62 -217 -62 -40 0 -158 53 -268 119 -27 17 -57 34 -65 38 -27 12 -124 75
-165 107 -27 20 -34 23 -21 8 48 -55 314 -215 444 -265 39 -16 42 -19 28 -33
-26 -25 -19 -34 28 -34 64 0 181 24 261 55 217 81 413 273 494 485 89 229 80
479 -26 699 l-35 74 25 24 24 25 31 -54 c41 -73 87 -208 102 -301 16 -95 8
-289 -14 -371 -98 -356 -376 -621 -727 -692 -112 -22 -322 -15 -429 15 -342
98 -600 381 -670 734 -13 66 -16 241 -5 306 l7 42 29 -19 29 -18 4 -154 c2
-104 9 -175 20 -215 23 -81 96 -229 143 -290 l38 -50 5 55 c4 49 3 56 -17 68
-22 12 -24 17 -27 50 -1 7 -6 16 -12 20 -21 13 -32 47 -23 70 5 12 12 22 16
22 4 0 28 -19 53 -42 l45 -43 -41 45 c-50 55 -57 72 -38 99 17 23 57 28 74 9
5 -7 19 -24 30 -38 14 -18 13 -12 -6 22 -30 55 -30 111 -1 116 35 7 64 -8 77
-38 19 -46 31 -46 13 0 -9 22 -24 42 -35 46 -14 4 -17 11 -12 27 14 48 92 173
148 236 l59 66 -60 -60 c-32 -33 -66 -70 -74 -82 -15 -22 -19 -23 -94 -13 -42
5 -88 7 -101 4 -52 -13 -57 1 -24 67 17 33 30 63 27 65 -2 2 -14 -19 -27 -46
-23 -48 -25 -50 -54 -44 -83 18 -206 107 -279 202 -43 56 -78 115 -76 128 0 4
-3 10 -8 13 -9 6 -33 57 -33 69 0 4 64 6 142 5 l142 -3 51 -34 c27 -18 73 -54
101 -80 29 -25 55 -46 58 -46 3 0 6 9 6 20 0 22 27 27 58 11 9 -5 77 -17 150
-25 160 -20 239 -46 253 -84 5 -15 13 -34 19 -44 6 -11 5 -20 -6 -29 -8 -7
-20 -22 -25 -33 -7 -14 -3 -11 13 7 l23 28 78 -41 c70 -36 85 -40 145 -39 l67
2 -66 7 c-116 11 -222 78 -235 146 -12 65 12 230 44 297 29 62 41 77 166 196
l67 64 51 -6 c58 -7 60 -1 3 11 l-38 8 28 18 c39 26 124 55 160 56 17 0 44 -8
60 -18z m311 -7 c1 -9 -4 -11 -14 -8 -10 4 -13 2 -8 -5 5 -8 1 -10 -10 -5 -13
5 -15 3 -9 -8 5 -8 4 -11 0 -6 -16 14 -14 36 3 30 10 -4 13 -2 8 5 -5 8 -1 10
10 5 13 -5 15 -3 9 8 -5 8 -4 11 0 6 5 -4 10 -14 11 -22z m-538 9 l23 -7 -27
-28 c-27 -28 -30 -29 -133 -29 -95 0 -203 -15 -255 -36 -17 -7 -18 -4 -12 32
4 21 9 40 11 42 22 22 330 42 393 26z m467 -64 c3 0 3 6 -1 13 -4 6 -3 8 1 4
5 -4 10 -14 11 -22 2 -11 -2 -12 -16 -5 -25 13 -33 13 -24 -2 4 -7 3 -9 -1 -5
-5 4 -10 14 -11 22 -2 11 2 12 16 5 10 -6 21 -10 25 -10z m-2284 -27 c26 -28
28 -33 10 -22 -22 14 -60 59 -49 59 2 0 20 -17 39 -37z m2324 -270 c27 -76 27
-78 9 -110 -9 -18 -23 -38 -31 -44 -21 -18 -12 21 16 61 l23 35 -24 -27 c-23
-27 -24 -27 -36 -7 -8 12 -9 18 -4 15 6 -3 13 1 16 10 3 8 2 12 -4 9 -12 -7
-43 21 -46 41 -1 8 2 11 7 8 12 -7 42 64 35 83 -3 8 -2 12 3 9 4 -3 21 -40 36
-83z m-64 14 c-10 -9 -11 -8 -5 6 3 10 9 15 12 12 3 -3 0 -11 -7 -18z m-1278
-67 c-20 -27 -40 -50 -43 -50 -3 1 -15 9 -28 20 -22 18 -22 20 -7 44 15 23 36
31 93 35 21 1 20 -2 -15 -49z m-111 18 c-9 -9 -15 -9 -24 0 -9 9 -7 12 12 12
19 0 21 -3 12 -12z"/>
<path d="M2400 3092 c0 -4 13 -13 29 -20 38 -17 61 -53 71 -111 7 -42 8 -43 9
-11 1 50 -32 116 -68 134 -34 18 -41 19 -41 8z"/>
<path d="M2155 3000 c-3 -5 1 -10 9 -10 8 0 18 5 21 10 3 6 -1 10 -9 10 -8 0
-18 -4 -21 -10z"/>
<path d="M2161 2950 c-13 -11 -19 -20 -14 -20 6 0 18 9 28 20 23 25 17 25 -14
0z"/>
<path d="M2357 2896 c-3 -8 -3 -17 0 -20 9 -9 44 14 38 25 -9 14 -32 11 -38
-5z"/>
<path d="M2246 2850 c20 -30 30 -37 35 -28 15 23 10 37 -21 53 -42 22 -43 19
-14 -25z"/>
<path d="M2160 2862 c0 -12 59 -66 65 -60 7 7 -43 68 -56 68 -5 0 -9 -4 -9 -8z"/>
<path d="M2120 2730 c8 -5 22 -9 30 -9 10 0 8 3 -5 9 -27 12 -43 12 -25 0z"/>
<path d="M2318 2723 c7 -3 16 -2 19 1 4 3 -2 6 -13 5 -11 0 -14 -3 -6 -6z"/>
<path d="M2197 2713 c18 -2 50 -2 70 0 21 2 7 4 -32 4 -38 0 -55 -2 -38 -4z"/>
<path d="M2579 2679 c-13 -11 -17 -17 -9 -12 8 4 31 13 50 19 32 11 33 12 9
13 -15 1 -37 -8 -50 -20z"/>
<path d="M2168 2643 c12 -2 32 -2 45 0 12 2 2 4 -23 4 -25 0 -35 -2 -22 -4z"/>
<path d="M2619 2583 c-13 -16 -12 -17 4 -4 16 13 21 21 13 21 -2 0 -10 -8 -17
-17z"/>
<path d="M1451 2573 c0 -12 -4 -30 -7 -40 -5 -17 -5 -17 6 0 6 10 9 28 7 40
-4 22 -4 22 -6 0z"/>
<path d="M1850 2389 c-7 -11 -10 -23 -7 -25 2 -2 9 7 15 21 14 30 7 33 -8 4z"/>
<path d="M2387 2386 c-4 -10 -1 -13 8 -9 8 3 12 9 9 14 -7 12 -11 11 -17 -5z"/>
<path d="M1971 2354 c0 -11 3 -14 6 -6 3 7 2 16 -1 19 -3 4 -6 -2 -5 -13z"/>
<path d="M2280 2330 c-8 -5 -10 -10 -5 -10 6 0 17 5 25 10 8 5 11 10 5 10 -5
0 -17 -5 -25 -10z"/>
<path d="M1822 2300 c0 -14 2 -19 5 -12 2 6 2 18 0 25 -3 6 -5 1 -5 -13z"/>
<path d="M2110 2279 c0 -5 5 -7 10 -4 6 3 10 8 10 11 0 2 -4 4 -10 4 -5 0 -10
-5 -10 -11z"/>
<path d="M2122 2230 c0 -14 2 -19 5 -12 2 6 2 18 0 25 -3 6 -5 1 -5 -13z"/>
<path d="M1775 2169 c-42 -24 -75 -63 -74 -88 0 -24 1 -23 12 8 17 48 57 75
114 75 46 1 48 0 48 -26 -1 -16 3 -24 8 -19 5 5 7 19 5 32 -3 21 -9 24 -48 26
-25 2 -54 -2 -65 -8z"/>
<path d="M2140 2167 c0 -14 28 -74 38 -81 6 -3 14 -1 18 6 4 7 3 9 -1 5 -5 -4
-19 11 -32 35 -12 24 -22 39 -23 35z"/>
<path d="M1510 2153 c8 -3 23 -12 33 -21 10 -9 17 -11 17 -4 0 13 -32 32 -52
31 -9 0 -8 -2 2 -6z"/>
<path d="M1850 2079 c-7 -11 -10 -23 -7 -25 2 -2 9 7 15 21 14 30 7 33 -8 4z"/>
<path d="M1455 2058 c11 -6 23 -16 27 -22 5 -8 8 -7 8 1 0 7 -9 17 -19 23 -27
14 -41 12 -16 -2z"/>
<path d="M1555 2000 c10 -11 20 -20 23 -20 3 0 -3 9 -13 20 -10 11 -20 20 -23
20 -3 0 3 -9 13 -20z"/>
<path d="M1841 1924 c0 -11 3 -14 6 -6 3 7 2 16 -1 19 -3 4 -6 -2 -5 -13z"/>
<path d="M1871 1906 c2 -2 36 -16 74 -31 39 -15 110 -48 158 -72 49 -24 86
-39 82 -33 -9 15 -114 67 -217 106 -81 32 -108 40 -97 30z"/>
<path d="M2320 1879 c0 -6 -27 -38 -59 -70 -77 -77 -67 -76 15 1 66 61 73 72
55 78 -6 2 -11 -2 -11 -9z"/>
<path d="M2360 1867 c0 -2 22 -19 48 -37 27 -18 64 -55 82 -82 18 -26 35 -48
37 -48 10 0 -35 65 -68 99 -31 32 -99 79 -99 68z"/>
<path d="M1490 1830 c8 -5 20 -10 25 -10 6 0 3 5 -5 10 -8 5 -19 10 -25 10 -5
0 -3 -5 5 -10z"/>
<path d="M1538 1813 c7 -3 16 -2 19 1 4 3 -2 6 -13 5 -11 0 -14 -3 -6 -6z"/>
<path d="M798 3585 c-344 -65 -444 -263 -211 -421 206 -140 624 -187 883 -100
186 63 260 169 200 285 -44 87 -189 171 -370 216 -133 34 -380 43 -502 20z
m317 -10 c169 -15 362 -85 453 -166 57 -50 67 -67 77 -126 6 -38 3 -48 -26
-88 -25 -34 -49 -53 -103 -79 -91 -43 -91 -43 -221 -61 -215 -30 -481 16 -647
112 -81 47 -110 74 -142 135 -19 34 -19 40 -5 85 20 66 93 124 191 154 82 26
252 49 313 44 22 -3 72 -7 110 -10z"/>
<path d="M824 3541 c-64 -16 -72 -40 -21 -71 44 -27 136 -28 168 -1 l24 20
-20 20 c-22 23 -93 42 -81 23 4 -7 2 -12 -3 -12 -6 0 -11 7 -11 15 0 16 -8 17
-56 6z m126 -31 c0 -5 -2 -10 -4 -10 -3 0 -8 5 -11 10 -3 6 -1 10 4 10 6 0 11
-4 11 -10z m-120 -4 c0 -11 -19 -15 -25 -6 -3 5 1 10 9 10 9 0 16 -2 16 -4z
m80 -6 c0 -5 -2 -10 -4 -10 -3 0 -8 5 -11 10 -3 6 -1 10 4 10 6 0 11 -4 11
-10z m-40 -10 c0 -5 -4 -10 -10 -10 -5 0 -10 5 -10 10 0 6 5 10 10 10 6 0 10
-4 10 -10z m70 -10 c0 -5 -4 -10 -10 -10 -5 0 -10 5 -10 10 0 6 5 10 10 10 6
0 10 -4 10 -10z"/>
<path d="M1080 3530 c0 -5 6 -10 14 -10 8 0 18 5 21 10 3 6 -3 10 -14 10 -12
0 -21 -4 -21 -10z"/>
<path d="M1258 3498 c-17 -6 -28 -17 -28 -29 0 -59 185 -80 207 -23 9 23 -15
43 -28 24 -9 -13 -10 -12 -5 2 9 31 -87 48 -146 26z m52 -18 c0 -5 -4 -10 -10
-10 -5 0 -10 5 -10 10 0 6 5 10 10 10 6 0 10 -4 10 -10z m-40 -10 c0 -5 -4
-10 -10 -10 -5 0 -10 5 -10 10 0 6 5 10 10 10 6 0 10 -4 10 -10z m54 -26 c9
-22 -3 -32 -14 -14 -12 19 -12 30 -1 30 5 0 12 -7 15 -16z m63 0 c-3 -3 -12
-4 -19 -1 -8 3 -5 6 6 6 11 1 17 -2 13 -5z"/>
<path d="M614 3485 c-18 -14 -18 -14 3 -15 23 0 39 15 25 24 -5 3 -18 -1 -28
-9z"/>
<path d="M1043 3483 c-23 -9 -14 -30 17 -43 32 -13 95 -6 106 12 17 27 -77 50
-123 31z"/>
<path d="M703 3473 c-26 -10 -12 -31 24 -36 43 -7 72 4 51 20 -17 13 -59 22
-75 16z"/>
<path d="M1460 3425 c0 -8 15 -22 33 -31 17 -9 47 -27 65 -41 46 -35 43 -5 -6
47 -40 41 -92 56 -92 25z"/>
<path d="M542 3414 c-31 -22 -28 -51 9 -69 77 -40 204 -22 197 27 -7 50 -153
80 -206 42z m108 -4 c0 -5 -4 -10 -10 -10 -5 0 -10 5 -10 10 0 6 5 10 10 10 6
0 10 -4 10 -10z m-50 -10 c0 -5 -2 -10 -4 -10 -3 0 -8 5 -11 10 -3 6 -1 10 4
10 6 0 11 -4 11 -10z m110 -4 c0 -3 -4 -8 -10 -11 -5 -3 -10 -1 -10 4 0 6 5
11 10 11 6 0 10 -2 10 -4z m-130 -16 c0 -5 -4 -10 -10 -10 -5 0 -10 5 -10 10
0 6 5 10 10 10 6 0 10 -4 10 -10z m60 0 c0 -5 -4 -10 -10 -10 -5 0 -10 5 -10
10 0 6 5 10 10 10 6 0 10 -4 10 -10z m55 -20 c3 -5 1 -10 -4 -10 -6 0 -11 5
-11 10 0 6 2 10 4 10 3 0 8 -4 11 -10z m-75 -10 c0 -5 -2 -10 -4 -10 -3 0 -8
5 -11 10 -3 6 -1 10 4 10 6 0 11 -4 11 -10z m45 0 c3 -5 -1 -10 -10 -10 -9 0
-13 5 -10 10 3 6 8 10 10 10 2 0 7 -4 10 -10z"/>
<path d="M1422 3398 c5 -15 28 -18 29 -3 0 6 -7 12 -17 13 -10 3 -15 -1 -12
-10z"/>
<path d="M1003 3385 c-36 -16 -42 -35 -16 -60 25 -26 59 -35 128 -35 109 0
138 49 54 92 -41 22 -121 23 -166 3z m107 -5 c0 -5 -4 -10 -10 -10 -5 0 -10 5
-10 10 0 6 5 10 10 10 6 0 10 -4 10 -10z m-50 -10 c0 -5 -4 -10 -9 -10 -6 0
-13 5 -16 10 -3 6 1 10 9 10 9 0 16 -4 16 -10z m116 -14 c20 -21 17 -28 -6
-14 -11 7 -20 16 -20 20 0 12 10 9 26 -6z m-146 -6 c0 -5 -4 -10 -10 -10 -5 0
-10 5 -10 10 0 6 5 10 10 10 6 0 10 -4 10 -10z m100 0 c0 -5 -2 -10 -4 -10 -3
0 -8 5 -11 10 -3 6 -1 10 4 10 6 0 11 -4 11 -10z m-63 -36 c-3 -3 -12 -4 -19
-1 -8 3 -5 6 6 6 11 1 17 -2 13 -5z m53 -4 c0 -5 -4 -10 -10 -10 -5 0 -10 5
-10 10 0 6 5 10 10 10 6 0 10 -4 10 -10z"/>
<path d="M886 3373 c-7 -7 13 -33 25 -33 5 0 9 6 9 14 0 15 -24 28 -34 19z"/>
<path d="M812 3351 c-19 -12 -4 -38 33 -55 37 -18 101 -21 110 -6 3 6 0 10 -7
10 -7 0 -38 13 -69 29 -31 17 -60 26 -67 22z"/>
<path d="M1264 3328 c-10 -16 33 -48 66 -48 15 0 33 6 39 14 10 11 7 17 -11
30 -26 19 -84 21 -94 4z"/>
<path d="M1428 3319 c-78 -30 -10 -99 97 -99 54 0 108 24 103 47 -2 9 -15 25
-30 36 -32 24 -127 33 -170 16z m152 -49 c0 -5 -4 -10 -10 -10 -5 0 -10 5 -10
10 0 6 5 10 10 10 6 0 10 -4 10 -10z m-85 -20 c3 -5 1 -10 -4 -10 -6 0 -11 5
-11 10 0 6 2 10 4 10 3 0 8 -4 11 -10z"/>
<path d="M535 3289 c18 -57 69 -100 104 -87 14 4 4 16 -58 67 -47 39 -52 41
-46 20z"/>
<path d="M645 3290 c-16 -27 42 -42 75 -20 13 9 13 11 0 20 -20 13 -67 13 -75
0z"/>
<path d="M1226 3266 c14 -37 113 -71 162 -56 15 5 20 9 12 9 -8 1 -44 15 -78
31 -70 33 -105 39 -96 16z"/>
<path d="M740 3264 c-24 -10 -50 -36 -50 -50 0 -43 110 -82 193 -70 90 14 113
67 44 103 -32 16 -159 28 -187 17z m110 -18 c0 -11 -19 -15 -25 -6 -3 5 1 10
9 10 9 0 16 -2 16 -4z m66 -31 c13 -13 13 -15 1 -15 -8 0 -17 7 -21 15 -3 8
-3 15 0 15 3 0 12 -7 20 -15z m-156 -5 c0 -5 -4 -10 -10 -10 -5 0 -10 5 -10
10 0 6 5 10 10 10 6 0 10 -4 10 -10z m67 -16 c-3 -3 -12 -4 -19 -1 -8 3 -5 6
6 6 11 1 17 -2 13 -5z m-10 -20 c-3 -3 -12 -4 -19 -1 -8 3 -5 6 6 6 11 1 17
-2 13 -5z"/>
<path d="M1055 3260 c-12 -19 9 -31 69 -37 56 -6 70 3 42 26 -20 17 -102 26
-111 11z"/>
<path d="M996 3221 c-3 -5 1 -14 8 -20 16 -13 32 2 21 19 -8 12 -22 13 -29 1z"/>
<path d="M1161 3187 c-19 -7 -39 -20 -45 -30 -25 -41 87 -95 173 -83 51 7 91
30 91 51 0 25 -41 54 -92 64 -61 14 -84 13 -127 -2z m114 -17 c3 -5 -1 -10
-10 -10 -9 0 -13 5 -10 10 3 6 8 10 10 10 2 0 7 -4 10 -10z m-55 -10 c0 -5 -2
-10 -4 -10 -3 0 -8 5 -11 10 -3 6 -1 10 4 10 6 0 11 -4 11 -10z m120 -10 c0
-5 -4 -10 -10 -10 -5 0 -10 5 -10 10 0 6 5 10 10 10 6 0 10 -4 10 -10z m-145
-10 c3 -5 1 -10 -4 -10 -6 0 -11 5 -11 10 0 6 2 10 4 10 3 0 8 -4 11 -10z m65
0 c0 -5 -4 -10 -10 -10 -5 0 -10 5 -10 10 0 6 5 10 10 10 6 0 10 -4 10 -10z
m67 -26 c-3 -3 -12 -4 -19 -1 -8 3 -5 6 6 6 11 1 17 -2 13 -5z m-80 -10 c-3
-3 -12 -4 -19 -1 -8 3 -5 6 6 6 11 1 17 -2 13 -5z m43 -4 c0 -5 -4 -10 -10
-10 -5 0 -10 5 -10 10 0 6 5 10 10 10 6 0 10 -4 10 -10z"/>
<path d="M1455 3171 c-3 -5 -1 -12 5 -16 12 -7 30 2 30 16 0 12 -27 12 -35 0z"/>
<path d="M977 3143 c-4 -3 -7 -10 -7 -14 0 -12 57 -21 82 -13 21 6 21 7 3 20
-20 15 -67 19 -78 7z"/>
<path d="M1542 3488 c74 -39 152 -122 169 -177 34 -113 -79 -226 -283 -282
-50 -13 -59 -18 -30 -14 73 9 174 48 237 90 128 86 139 200 28 307 -39 38
-149 108 -167 108 -6 0 15 -15 46 -32z"/>
<path d="M479 3463 c-13 -16 -12 -17 4 -4 9 7 17 15 17 17 0 8 -8 3 -21 -13z"/>
<path d="M445 3410 c-40 -78 4 -178 110 -250 11 -7 -1 6 -27 28 -78 71 -107
157 -73 222 9 17 13 30 11 30 -3 0 -12 -13 -21 -30z"/>
<path d="M1801 3194 c0 -11 3 -14 6 -6 3 7 2 16 -1 19 -3 4 -6 -2 -5 -13z"/>
<path d="M1778 3142 c-26 -43 -69 -79 -139 -117 -35 -19 -60 -35 -56 -35 17 0
108 52 142 81 38 34 80 88 73 94 -2 3 -11 -8 -20 -23z"/>
<path d="M540 3035 c0 -7 61 -37 66 -33 2 3 -12 12 -31 21 -19 9 -35 15 -35
12z"/>
<path d="M640 3012 c8 -5 26 -13 40 -16 17 -5 20 -4 10 2 -8 5 -26 13 -40 16
-17 5 -20 4 -10 -2z"/>
<path d="M1298 3003 c12 -2 30 -2 40 0 9 3 -1 5 -23 4 -22 0 -30 -2 -17 -4z"/>
<path d="M1123 2993 c26 -2 67 -2 90 0 23 2 2 3 -48 3 -49 0 -68 -1 -42 -3z"/>
<path d="M725 2980 c11 -5 27 -9 35 -9 9 0 8 4 -5 9 -11 5 -27 9 -35 9 -9 0
-8 -4 5 -9z"/>
<path d="M1535 2980 c-13 -6 -15 -9 -5 -9 8 0 22 4 30 9 18 12 2 12 -25 0z"/>
<path d="M788 2963 c7 -3 16 -2 19 1 4 3 -2 6 -13 5 -11 0 -14 -3 -6 -6z"/>
<path d="M828 2953 c7 -3 16 -2 19 1 4 3 -2 6 -13 5 -11 0 -14 -3 -6 -6z"/>
<path d="M1458 2953 c7 -3 16 -2 19 1 4 3 -2 6 -13 5 -11 0 -14 -3 -6 -6z"/>
<path d="M878 2943 c6 -2 18 -2 25 0 6 3 1 5 -13 5 -14 0 -19 -2 -12 -5z"/>
<path d="M1408 2943 c7 -3 16 -2 19 1 4 3 -2 6 -13 5 -11 0 -14 -3 -6 -6z"/>
<path d="M933 2933 c9 -2 25 -2 35 0 9 3 1 5 -18 5 -19 0 -27 -2 -17 -5z"/>
<path d="M1343 2933 c9 -2 23 -2 30 0 6 3 -1 5 -18 5 -16 0 -22 -2 -12 -5z"/>
<path d="M1038 2923 c18 -2 45 -2 60 0 15 2 0 4 -33 4 -33 0 -45 -2 -27 -4z"/>
<path d="M1223 2923 c15 -2 39 -2 55 0 15 2 2 4 -28 4 -30 0 -43 -2 -27 -4z"/>
<path d="M1005 1250 c-34 -5 -76 -12 -95 -17 -33 -9 -35 -13 -42 -59 -3 -27
-7 -183 -7 -346 l-1 -298 110 0 110 0 0 114 0 113 66 7 c178 18 283 109 284
244 0 126 -85 213 -235 241 -65 12 -101 12 -190 1z m190 -210 c46 -51 2 -130
-72 -130 l-36 0 7 46 c3 26 6 60 6 75 0 27 3 29 38 29 26 0 45 -7 57 -20z"/>
<path d="M1770 1147 l0 -97 88 5 c48 3 99 8 115 10 15 3 27 2 27 -1 0 -2 -59
-79 -130 -170 l-131 -165 10 -90 c4 -49 11 -92 14 -95 3 -3 102 -2 221 2 l216
7 0 103 0 104 -110 0 -110 0 115 151 115 151 0 89 0 88 -220 3 -220 3 0 -98z"/>
<path d="M2260 1142 l0 -97 111 8 c61 4 114 6 116 3 3 -2 -54 -78 -125 -168
l-129 -163 8 -75 c4 -41 8 -84 8 -96 1 -20 5 -20 179 -17 97 2 196 6 220 9
l42 5 0 100 0 99 -105 0 c-58 0 -105 3 -105 8 0 4 50 72 110 151 l110 143 0
88 0 87 -46 7 c-26 3 -125 6 -220 6 l-174 0 0 -98z"/>
<path d="M1534 1213 l-61 -4 -6 -241 c-4 -133 -7 -282 -7 -332 l0 -91 103 3
103 3 27 312 c16 172 30 322 33 335 4 21 2 22 -63 20 -38 -1 -95 -3 -129 -5z"/>
<path d="M3035 1210 l-129 -5 -102 -325 -101 -325 119 -14 c65 -7 121 -11 124
-8 3 3 11 27 18 54 l12 48 57 3 c40 2 58 -1 61 -10 2 -7 9 -33 16 -58 l11 -46
117 14 c64 8 118 15 120 17 5 5 -181 665 -187 663 -3 -1 -64 -5 -136 -8z m26
-346 c8 -41 13 -76 11 -79 -8 -8 -72 -6 -72 2 0 24 34 162 39 157 3 -3 13 -39
22 -80z"/>
</g>
</svg>
